<svg xmlns="http://www.w3.org/2000/svg" width="512" height="512" viewBox="0 0 512 512">
  <defs>
    <style>
      .cls-1 {
        fill: #011c32;
      }

      .cls-2 {
        fill: #9e9e9e;
      }

      .cls-3 {
        fill: #068cf9;
      }

      .cls-4 {
        fill: #343434;
      }

      .cls-5 {
        fill: #202020;
      }
    </style>
  </defs>
  <rect id="Rectángulo_1" data-name="Rectángulo 1" class="cls-1" x="54" y="133" width="132" height="43" rx="21.5" ry="21.5"/>
  <rect id="Rectángulo_1-2" data-name="Rectángulo 1" class="cls-2" x="217" y="336" width="143" height="43" rx="21.5" ry="21.5"/>
  <rect id="Rectángulo_1-3" data-name="Rectángulo 1" class="cls-3" x="53" y="201" width="67" height="43" rx="21.5" ry="21.5"/>
  <rect id="Rectángulo_1-4" data-name="Rectángulo 1" class="cls-1" x="53" y="268" width="191" height="43" rx="21.5" ry="21.5"/>
  <rect id="Rectángulo_1-5" data-name="Rectángulo 1" class="cls-1" x="244" y="201" width="115" height="43" rx="21.5" ry="21.5"/>
  <rect id="Rectángulo_1-6" data-name="Rectángulo 1" class="cls-3" x="255" y="269" width="74" height="43" rx="21.5" ry="21.5"/>
  <rect id="Rectángulo_1-7" data-name="Rectángulo 1" class="cls-1" x="341" y="269" width="116" height="43" rx="21.5" ry="21.5"/>
  <rect id="Rectángulo_1-8" data-name="Rectángulo 1" class="cls-1" x="53" y="336" width="133" height="43" rx="21.5" ry="21.5"/>
  <rect id="Rectángulo_1-9" data-name="Rectángulo 1" class="cls-3" x="200" y="134" width="257" height="43" rx="21.5" ry="21.5"/>
  <rect id="Rectángulo_1-10" data-name="Rectángulo 1" class="cls-1" x="371" y="336" width="87" height="43" rx="21.5" ry="21.5"/>
  <rect id="Rectángulo_1-11" data-name="Rectángulo 1" class="cls-4" x="371" y="201" width="87" height="43" rx="21.5" ry="21.5"/>
  <rect id="Rectángulo_1-12" data-name="Rectángulo 1" class="cls-5" x="124" y="200" width="106" height="43" rx="21.5" ry="21.5"/>
</svg>
